<svg xmlns="http://www.w3.org/2000/svg" width="1005" height="600"><rect width="1005" height="600" x="0" y="0" fill="#FFFFFF" id="backgorund"/><g id="viz"><g transform="translate(0,0)"><g transform="translate(60,24)"><g id="Pop. inondée" fill="#555555"><rect x="548.4996584699454" y="544.272495" width="181.50170765027323" height="1.727504999999951"/><rect x="0.9986338797814369" y="384.74104500000004" width="181.50170765027323" height="161.25895499999996"/><rect x="365.9993169398907" y="462.686055" width="181.50170765027323" height="83.31394499999999"/><rect x="183.49897540983608" y="423.67825500000004" width="181.50170765027323" height="122.32174499999996"/></g><g id="Population" fill="#1f77b4"><rect x="548.4996584699454" y="309.687495" width="181.50170765027323" height="234.58500000000004"/><rect x="0.9986338797814369" y="16.77604500000002" width="181.50170765027323" height="367.96500000000003"/><rect x="365.9993169398907" y="228.10105499999997" width="181.50170765027323" height="234.58500000000004"/><rect x="183.49897540983608" y="137.281755" width="181.50170765027323" height="286.3965"/></g><g id="xAxis" transform="translate(0,546)" fill="none" font-size="10" font-family="sans-serif" text-anchor="middle"><path class="domain" stroke="currentColor" d="M0,0H731"/><g class="tick" opacity="1" transform="translate(91.74948770491805,0)"><line stroke="currentColor" y2="6"/><text fill="currentColor" y="9" dy="0.71em">Anvers</text></g><g class="tick" opacity="1" transform="translate(274.2498292349727,0)"><line stroke="currentColor" y2="6"/><text fill="currentColor" y="9" dy="0.71em">Flandre orientale</text></g><g class="tick" opacity="1" transform="translate(456.75017076502735,0)"><line stroke="currentColor" y2="6"/><text fill="currentColor" y="9" dy="0.71em">Flandre occidentale</text></g><g class="tick" opacity="1" transform="translate(639.250512295082,0)"><line stroke="currentColor" y2="6"/><text fill="currentColor" y="9" dy="0.71em">Brabant flammand</text></g></g><g id="yAxis" fill="none" font-size="10" font-family="sans-serif" text-anchor="end"><path class="domain" stroke="currentColor" d="M0,546V0"/><g class="tick" opacity="1" transform="translate(0,546)"><line stroke="currentColor" x2="-6"/><text fill="currentColor" x="-9" dy="0.32em">0</text></g><g class="tick" opacity="1" transform="translate(0,507)"><line stroke="currentColor" x2="-6"/><text fill="currentColor" x="-9" dy="0.32em">200,000</text></g><g class="tick" opacity="1" transform="translate(0,468.00000000000006)"><line stroke="currentColor" x2="-6"/><text fill="currentColor" x="-9" dy="0.32em">400,000</text></g><g class="tick" opacity="1" transform="translate(0,429)"><line stroke="currentColor" x2="-6"/><text fill="currentColor" x="-9" dy="0.32em">600,000</text></g><g class="tick" opacity="1" transform="translate(0,390)"><line stroke="currentColor" x2="-6"/><text fill="currentColor" x="-9" dy="0.32em">800,000</text></g><g class="tick" opacity="1" transform="translate(0,350.99999999999994)"><line stroke="currentColor" x2="-6"/><text fill="currentColor" x="-9" dy="0.32em">1,000,000</text></g><g class="tick" opacity="1" transform="translate(0,312)"><line stroke="currentColor" x2="-6"/><text fill="currentColor" x="-9" dy="0.32em">1,200,000</text></g><g class="tick" opacity="1" transform="translate(0,273)"><line stroke="currentColor" x2="-6"/><text fill="currentColor" x="-9" dy="0.32em">1,400,000</text></g><g class="tick" opacity="1" transform="translate(0,234.00000000000003)"><line stroke="currentColor" x2="-6"/><text fill="currentColor" x="-9" dy="0.32em">1,600,000</text></g><g class="tick" opacity="1" transform="translate(0,194.99999999999997)"><line stroke="currentColor" x2="-6"/><text fill="currentColor" x="-9" dy="0.32em">1,800,000</text></g><g class="tick" opacity="1" transform="translate(0,156)"><line stroke="currentColor" x2="-6"/><text fill="currentColor" x="-9" dy="0.32em">2,000,000</text></g><g class="tick" opacity="1" transform="translate(0,117.00000000000001)"><line stroke="currentColor" x2="-6"/><text fill="currentColor" x="-9" dy="0.32em">2,200,000</text></g><g class="tick" opacity="1" transform="translate(0,78.00000000000003)"><line stroke="currentColor" x2="-6"/><text fill="currentColor" x="-9" dy="0.32em">2,400,000</text></g><g class="tick" opacity="1" transform="translate(0,38.999999999999986)"><line stroke="currentColor" x2="-6"/><text fill="currentColor" x="-9" dy="0.32em">2,600,000</text></g><g class="tick" opacity="1" transform="translate(0,0)"><line stroke="currentColor" x2="-6"/><text fill="currentColor" x="-9" dy="0.32em">2,800,000</text></g></g><text y="542" x="731" text-anchor="end" style="font-family: Arial, sans-serif; font-size: 12px; fill: rgb(123, 123, 123); font-weight: bold;">Région</text></g><text x="4" y="4" style="font-family: Arial, sans-serif; font-size: 12px; fill: black; font-weight: bold; dominant-baseline: hanging;"/></g><g id="grid"><rect x="0" y="0" width="805" height="600" fill="none" stroke="#ccc"/></g></g><g id="legend" transform="translate(805,24)"><g transform="translate(5,0)"><g class="legendColor" transform="translate(0,0)"><g class="legendCells" transform="translate(0,16)"><g class="cell" transform="translate(0, 0)"><rect class="swatch" height="15" width="15" style="fill: rgb(85, 85, 85);"/><text class="label" transform="translate( 20, 12.5)" font-family="&quot;Arial&quot;, sans-serif" font-size="10px"><tspan x="0" dy="0em">Pop. inondée</tspan></text></g><g class="cell" transform="translate(0, 21)"><rect class="swatch" height="15" width="15" style="fill: rgb(31, 119, 180);"/><text class="label" transform="translate( 20, 12.5)" font-family="&quot;Arial&quot;, sans-serif" font-size="10px"><tspan x="0" dy="0em">Population</tspan></text></g></g><text class="legendTitle" font-family="&quot;Arial&quot;, sans-serif" font-size="12px" font-weight="bold"><tspan x="0" dy="0em">Colors</tspan></text></g></g></g></svg>